<?xml version="1.0" encoding="utf-8"?>
<!-- Generator: Adobe Illustrator 16.0.0, SVG Export Plug-In . SVG Version: 6.00 Build 0)  -->
<!DOCTYPE svg PUBLIC "-//W3C//DTD SVG 1.1//EN" "http://www.w3.org/Graphics/SVG/1.1/DTD/svg11.dtd">
<svg version="1.1" id="Layer_1" xmlns="http://www.w3.org/2000/svg" xmlns:xlink="http://www.w3.org/1999/xlink" x="0px" y="0px"
	 width="472.001px" height="105.333px" viewBox="0 0 472.001 105.333" style="enable-background:new 0 0 472.001 105.333;"
	 xml:space="preserve">
<g>
	<rect x="38.771" y="22.083" style="fill:none;" width="464" height="67"/>
	<path style="fill:#FFFFFF;" d="M57.317,74.579c-6.134,0-11.688-1.915-16.662-5.746l4.708-7.094c4.25,3.027,8.332,4.54,12.243,4.54
		c3.09,0,4.637-0.945,4.637-2.838V63.3c0-0.236-0.036-0.472-0.109-0.709c-0.072-0.236-0.206-0.449-0.398-0.639
		c-0.193-0.188-0.398-0.366-0.616-0.532c-0.217-0.165-0.507-0.33-0.869-0.496s-0.677-0.308-0.942-0.426
		c-0.266-0.118-0.641-0.26-1.123-0.426c-0.483-0.165-0.894-0.295-1.231-0.391c-0.338-0.094-0.797-0.224-1.376-0.39
		c-0.58-0.165-1.039-0.295-1.376-0.391c-1.643-0.472-3.042-0.958-4.202-1.454c-1.159-0.497-2.354-1.171-3.586-2.021
		c-1.232-0.852-2.173-1.951-2.826-3.299c-0.652-1.349-0.978-2.896-0.978-4.646v-0.143c0-3.735,1.352-6.68,4.057-8.832
		c2.704-2.151,6.085-3.228,10.142-3.228c5.216,0,10.045,1.466,14.489,4.398l-4.202,7.448c-4.105-2.364-7.606-3.547-10.504-3.547
		c-1.304,0-2.307,0.248-3.006,0.745c-0.701,0.496-1.05,1.124-1.05,1.88v0.142c0,1.277,2.221,2.649,6.665,4.115
		c0.531,0.189,0.942,0.331,1.232,0.425c1.69,0.568,3.103,1.1,4.238,1.597c1.134,0.496,2.342,1.183,3.622,2.058
		c1.279,0.875,2.246,1.95,2.898,3.228c0.652,1.276,0.978,2.743,0.978,4.398v0.142c0,4.068-1.365,7.13-4.093,9.187
		C65.346,73.551,61.76,74.579,57.317,74.579z"/>
	<path style="fill:#FFFFFF;" d="M87.744,74.154L75.791,35.846h11.156l6.23,23.056l7.317-23.197h9.49l7.389,23.269l6.375-23.127
		h10.939L122.59,74.154h-9.925l-7.461-23.34l-7.607,23.34H87.744z"/>
	<path style="fill:#FFFFFF;" d="M141.569,31.66v-9.577h11.591v9.577H141.569z M141.859,73.87V35.846h11.012V73.87H141.859z"/>
	<path style="fill:#FFFFFF;" d="M176.342,74.509c-3.622,0-6.411-0.862-8.367-2.59c-1.956-1.726-2.934-4.67-2.934-8.832V45.068
		h-4.636v-9.223h4.636v-9.719h11.012v9.719h9.128v9.223h-9.128v16.245c0,2.46,1.183,3.689,3.55,3.689
		c1.931,0,3.742-0.449,5.433-1.349v8.655C182.523,73.776,179.625,74.509,176.342,74.509z"/>
	<path style="fill:#FFFFFF;" d="M210.535,74.722c-5.796,0-10.613-1.903-14.453-5.711c-3.84-3.807-5.76-8.453-5.76-13.94v-0.142
		c0-5.485,1.931-10.155,5.796-14.011c3.863-3.854,8.717-5.782,14.561-5.782c6.472,0,11.639,2.129,15.503,6.385l-6.737,7.095
		c-2.706-2.79-5.651-4.186-8.838-4.186c-2.706,0-4.951,1.018-6.737,3.051c-1.788,2.033-2.681,4.469-2.681,7.307v0.142
		c0,2.979,0.906,5.475,2.717,7.484c1.811,2.011,4.189,3.015,7.136,3.015c3.043,0,6.013-1.348,8.911-4.043l6.448,6.385
		c-2.126,2.27-4.396,3.997-6.81,5.179C217.175,74.13,214.157,74.722,210.535,74.722z"/>
	<path style="fill:#FFFFFF;" d="M233.572,73.87V22.083h11.012v19.154c3.235-4.067,7.027-6.102,11.374-6.102
		c4.153,0,7.39,1.254,9.708,3.761c2.318,2.507,3.478,5.959,3.478,10.357V73.87h-11.012V52.659c0-2.507-0.58-4.422-1.739-5.747
		c-1.159-1.323-2.801-1.986-4.926-1.986c-2.125,0-3.803,0.663-5.035,1.986c-1.231,1.325-1.847,3.24-1.847,5.747V73.87H233.572z"/>
	<path style="fill:#FFFFFF;" d="M297.033,74.722c-5.796,0-10.613-1.903-14.453-5.711c-3.84-3.807-5.76-8.453-5.76-13.94v-0.142
		c0-5.485,1.931-10.155,5.796-14.011c3.863-3.854,8.717-5.782,14.561-5.782c6.472,0,11.639,2.129,15.503,6.385l-6.737,7.095
		c-2.706-2.79-5.651-4.186-8.838-4.186c-2.706,0-4.951,1.018-6.737,3.051c-1.788,2.033-2.681,4.469-2.681,7.307v0.142
		c0,2.979,0.906,5.475,2.717,7.484c1.811,2.011,4.189,3.015,7.136,3.015c3.043,0,6.013-1.348,8.911-4.043l6.448,6.385
		c-2.126,2.27-4.396,3.997-6.81,5.179C303.672,74.13,300.655,74.722,297.033,74.722z"/>
	<path style="fill:#FFFFFF;" d="M331.082,74.579c-3.816,0-6.991-1.028-9.527-3.086c-2.535-2.057-3.803-4.905-3.803-8.548v-0.142
		c0-4.02,1.413-7.047,4.238-9.081c2.825-2.033,6.628-3.051,11.41-3.051c3.235,0,6.399,0.521,9.49,1.562v-0.639
		c0-4.635-2.778-6.952-8.331-6.952c-3.333,0-6.907,0.686-10.722,2.057l-2.753-8.229c4.733-2.033,9.755-3.051,15.068-3.051
		c5.843,0,10.215,1.419,13.113,4.257c2.8,2.743,4.202,6.787,4.202,12.131V73.87h-10.649v-4.114
		C339.871,72.973,335.959,74.579,331.082,74.579z M334.414,67.131c2.56,0,4.637-0.626,6.23-1.88
		c1.594-1.253,2.391-2.849,2.391-4.789v-1.915c-2.077-0.945-4.419-1.419-7.027-1.419c-2.367,0-4.227,0.45-5.579,1.348
		c-1.353,0.899-2.028,2.199-2.028,3.902v0.142c0,1.419,0.555,2.543,1.667,3.37C331.178,66.717,332.626,67.131,334.414,67.131z"/>
	<path style="fill:#FFFFFF;" d="M376.576,74.579c-6.134,0-11.688-1.915-16.662-5.746l4.708-7.094c4.25,3.027,8.332,4.54,12.243,4.54
		c3.09,0,4.637-0.945,4.637-2.838V63.3c0-0.236-0.036-0.472-0.109-0.709c-0.072-0.236-0.206-0.449-0.398-0.639
		c-0.193-0.188-0.398-0.366-0.616-0.532c-0.217-0.165-0.507-0.33-0.869-0.496s-0.677-0.308-0.942-0.426
		c-0.266-0.118-0.641-0.26-1.123-0.426c-0.483-0.165-0.894-0.295-1.231-0.391c-0.338-0.094-0.797-0.224-1.376-0.39
		c-0.58-0.165-1.039-0.295-1.376-0.391c-1.643-0.472-3.042-0.958-4.202-1.454c-1.159-0.497-2.354-1.171-3.586-2.021
		c-1.232-0.852-2.173-1.951-2.826-3.299c-0.652-1.349-0.978-2.896-0.978-4.646v-0.143c0-3.735,1.352-6.68,4.057-8.832
		c2.704-2.151,6.085-3.228,10.142-3.228c5.216,0,10.045,1.466,14.489,4.398l-4.202,7.448c-4.105-2.364-7.606-3.547-10.504-3.547
		c-1.304,0-2.307,0.248-3.006,0.745c-0.701,0.496-1.05,1.124-1.05,1.88v0.142c0,1.277,2.221,2.649,6.665,4.115
		c0.531,0.189,0.942,0.331,1.232,0.425c1.69,0.568,3.103,1.1,4.238,1.597c1.134,0.496,2.342,1.183,3.622,2.058
		c1.279,0.875,2.246,1.95,2.898,3.228c0.652,1.276,0.978,2.743,0.978,4.398v0.142c0,4.068-1.365,7.13-4.093,9.187
		C384.605,73.551,381.019,74.579,376.576,74.579z"/>
	<path style="fill:#FFFFFF;" d="M417.725,74.722c-5.893,0-10.747-1.833-14.562-5.498c-3.815-3.665-5.723-8.382-5.723-14.153v-0.142
		c0-5.533,1.812-10.216,5.434-14.046c3.622-3.831,8.21-5.747,13.765-5.747c6.133,0,10.818,1.987,14.054,5.96
		c3.235,3.973,4.854,8.867,4.854,14.685c0,0.567-0.048,1.514-0.145,2.838h-27.021c0.531,2.411,1.617,4.256,3.26,5.533
		c1.642,1.276,3.719,1.915,6.23,1.915c3.429,0,6.567-1.3,9.417-3.901l6.303,5.462C429.678,72.357,424.39,74.722,417.725,74.722z
		 M408.234,51.878h16.59c-0.338-2.458-1.22-4.421-2.644-5.888c-1.425-1.466-3.272-2.199-5.542-2.199
		c-2.222,0-4.069,0.722-5.542,2.164C409.622,47.398,408.669,49.372,408.234,51.878z"/>
</g>
<g>
	<g>
		<path style="fill:#FFFFFF;" d="M460.089,53.083c-0.255,19.161-12.355,41.25-33.876,41.25c-3.275,0-6.549,0-9.824,0
			c-19.661,0-39.321,0-58.982,0c-63.153,0-126.307,0-189.46,0c-40.425,0-80.851,0-121.276,0c-42.231,0-46.433-70.539-8.108-81.553
			c4.379-1.259,9.135-0.947,13.659-0.947c7.037,0,14.074,0,21.111,0c57.069,0,114.138,0,171.208,0c54.289,0,108.579,0,162.868,0
			c6.004,0,12.008,0,18.013,0C447.323,11.833,459.826,33.209,460.089,53.083c0.086,6.443,10.086,6.452,10,0
			C469.797,31.115,457.523,8.433,435,2.843c-4.864-1.207-9.886-1.01-14.849-1.01c-17.832,0-35.663,0-53.494,0
			c-62.437,0-124.874,0-187.312,0c-43.633,0-87.267,0-130.9,0c-36.659,0-54.552,40.608-42.616,72.223
			c6.349,16.817,21.615,30.277,40.183,30.277c3.586,0,7.172,0,10.758,0c50.624,0,101.247,0,151.87,0c59.617,0,119.233,0,178.85,0
			c12.051,0,24.102,0,36.153,0c6.791,0,13.182-1.085,19.454-3.906c17.88-8.044,26.744-28.759,26.991-47.344
			C470.175,46.631,460.175,46.64,460.089,53.083z"/>
	</g>
</g>
<g>
</g>
<g>
</g>
<g>
</g>
<g>
</g>
<g>
</g>
<g>
</g>
<g>
</g>
<g>
</g>
<g>
</g>
<g>
</g>
<g>
</g>
<g>
</g>
<g>
</g>
<g>
</g>
<g>
</g>
</svg>
